<?xml version="1.0"?>

<svg width="100%" height="100%" viewBox="0 0 1326 555" version="1.1" xmlns="http://www.w3.org/2000/svg" xmlns:xlink="http://www.w3.org/1999/xlink" xml:space="preserve" xmlns:serif="http://www.serif.com/" style="fill-rule:evenodd;clip-rule:evenodd;stroke-linejoin:round;stroke-miterlimit:2;">
    <g transform="matrix(1,0,0,1,-3024.27,-719.972)">
        <g>
            <g transform="matrix(4.99562,0,0,4.99562,-2171.92,-4202.14)">
                <path d="M1043.25,1021.78L1043.25,985.285L1047.25,985.285L1047.25,1000.53C1048.12,999.035 1049.27,997.952 1050.7,997.285C1052.13,996.619 1053.7,996.285 1055.4,996.285C1057.2,996.285 1058.83,996.627 1060.3,997.31C1061.77,997.994 1062.94,999.035 1063.82,1000.44C1064.71,1001.84 1065.15,1003.62 1065.15,1005.78L1065.15,1021.78L1061.15,1021.78L1061.15,1007.19C1061.15,1004.42 1060.56,1002.49 1059.37,1001.41C1058.19,1000.33 1056.73,999.785 1055,999.785C1053.8,999.785 1052.6,1000.07 1051.4,1000.63C1050.2,1001.2 1049.21,1002.13 1048.42,1003.41C1047.64,1004.69 1047.25,1006.4 1047.25,1008.53L1047.25,1021.78L1043.25,1021.78Z" style="fill:rgb(43,43,43);fill-rule:nonzero;"></path>
            </g>
            <g transform="matrix(4.99562,0,0,4.99562,-2171.92,-4202.14)">
                <path d="M1084.65,1022.28C1082.28,1022.28 1080.17,1021.77 1078.32,1020.74C1076.47,1019.7 1075.03,1018.21 1074,1016.26C1072.96,1014.31 1072.45,1011.99 1072.45,1009.28C1072.45,1006.59 1072.96,1004.26 1074,1002.31C1075.03,1000.36 1076.45,998.869 1078.25,997.835C1080.05,996.802 1082.1,996.285 1084.4,996.285C1086.73,996.285 1088.72,996.785 1090.37,997.785C1092.02,998.785 1093.28,1000.14 1094.15,1001.86C1095.02,1003.58 1095.45,1005.5 1095.45,1007.63C1095.45,1008.2 1095.43,1008.72 1095.4,1009.19C1095.37,1009.65 1095.32,1010.07 1095.25,1010.44L1075.05,1010.44L1075.05,1006.88L1093.5,1006.88L1091.45,1007.28C1091.45,1004.88 1090.79,1003.03 1089.47,1001.74C1088.16,1000.44 1086.43,999.785 1084.3,999.785C1082.66,999.785 1081.26,1000.16 1080.07,1000.91C1078.89,1001.66 1077.97,1002.74 1077.32,1004.16C1076.67,1005.58 1076.35,1007.28 1076.35,1009.28C1076.35,1011.25 1076.68,1012.95 1077.35,1014.38C1078.02,1015.82 1078.96,1016.91 1080.17,1017.66C1081.39,1018.41 1082.85,1018.78 1084.55,1018.78C1086.38,1018.78 1087.87,1018.44 1089.02,1017.74C1090.17,1017.03 1091.1,1016.09 1091.8,1014.88L1094.95,1016.74C1094.32,1017.87 1093.51,1018.85 1092.52,1019.69C1091.54,1020.52 1090.39,1021.16 1089.07,1021.61C1087.76,1022.06 1086.28,1022.28 1084.65,1022.28Z" style="fill:rgb(43,43,43);fill-rule:nonzero;"></path>
            </g>
            <g transform="matrix(4.99562,0,0,4.99562,-2171.92,-4202.14)">
                <path d="M1106.85,985.285L1106.85,1015.44C1106.85,1016.7 1107.08,1017.58 1107.55,1018.06C1108.02,1018.54 1108.77,1018.78 1109.8,1018.78C1110.46,1018.78 1111.02,1018.74 1111.45,1018.63C1111.88,1018.53 1112.46,1018.35 1113.2,1018.09L1112.55,1021.59C1112.02,1021.82 1111.43,1021.99 1110.8,1022.11C1110.16,1022.23 1109.52,1022.28 1108.85,1022.28C1106.82,1022.28 1105.31,1021.74 1104.32,1020.63C1103.34,1019.53 1102.85,1017.85 1102.85,1015.59L1102.85,985.285L1106.85,985.285Z" style="fill:rgb(43,43,43);fill-rule:nonzero;"></path>
            </g>
            <g transform="matrix(4.99562,0,0,4.99562,-2171.92,-4202.14)">
                <path d="M1122.15,985.285L1122.15,1015.44C1122.15,1016.7 1122.38,1017.58 1122.85,1018.06C1123.32,1018.54 1124.07,1018.78 1125.1,1018.78C1125.77,1018.78 1126.32,1018.74 1126.75,1018.63C1127.18,1018.53 1127.77,1018.35 1128.5,1018.09L1127.85,1021.59C1127.32,1021.82 1126.73,1021.99 1126.1,1022.11C1125.46,1022.23 1124.82,1022.28 1124.15,1022.28C1122.12,1022.28 1120.61,1021.74 1119.62,1020.63C1118.64,1019.53 1118.15,1017.85 1118.15,1015.59L1118.15,985.285L1122.15,985.285Z" style="fill:rgb(43,43,43);fill-rule:nonzero;"></path>
            </g>
            <g transform="matrix(4.99562,0,0,4.99562,-2171.92,-4202.14)">
                <path d="M1144,996.285C1146.37,996.285 1148.46,996.802 1150.27,997.835C1152.09,998.869 1153.52,1000.36 1154.55,1002.31C1155.58,1004.26 1156.1,1006.59 1156.1,1009.28C1156.1,1011.99 1155.58,1014.31 1154.55,1016.26C1153.52,1018.21 1152.09,1019.7 1150.27,1020.74C1148.46,1021.77 1146.37,1022.28 1144,1022.28C1141.66,1022.28 1139.58,1021.77 1137.75,1020.74C1135.91,1019.7 1134.48,1018.21 1133.45,1016.26C1132.41,1014.31 1131.9,1011.99 1131.9,1009.28C1131.9,1006.59 1132.41,1004.26 1133.45,1002.31C1134.48,1000.36 1135.91,998.869 1137.75,997.835C1139.58,996.802 1141.66,996.285 1144,996.285ZM1144,999.735C1142.3,999.735 1140.85,1000.12 1139.65,1000.88C1138.45,1001.65 1137.52,1002.74 1136.87,1004.16C1136.22,1005.58 1135.9,1007.28 1135.9,1009.28C1135.9,1011.25 1136.22,1012.95 1136.87,1014.38C1137.52,1015.82 1138.45,1016.92 1139.65,1017.69C1140.85,1018.45 1142.3,1018.84 1144,1018.84C1145.7,1018.84 1147.15,1018.45 1148.35,1017.69C1149.55,1016.92 1150.47,1015.82 1151.12,1014.38C1151.77,1012.95 1152.1,1011.25 1152.1,1009.28C1152.1,1007.28 1151.77,1005.58 1151.12,1004.16C1150.47,1002.74 1149.55,1001.65 1148.35,1000.88C1147.15,1000.12 1145.7,999.735 1144,999.735Z" style="fill:rgb(43,43,43);fill-rule:nonzero;"></path>
            </g>
            <g transform="matrix(4.99562,0,0,4.99562,-2171.92,-4202.14)">
                <path d="M1049.15,1039.68L1049.15,1064.88C1049.15,1066.12 1049.5,1067.04 1050.2,1067.63C1050.9,1068.24 1051.8,1068.54 1052.9,1068.54C1053.87,1068.54 1054.7,1068.37 1055.4,1068.04C1056.1,1067.7 1056.73,1067.25 1057.3,1066.68L1058.7,1070.04C1057.93,1070.74 1057.02,1071.29 1055.97,1071.68C1054.92,1072.09 1053.71,1072.29 1052.35,1072.29C1051.08,1072.29 1049.9,1072.06 1048.8,1071.61C1047.7,1071.16 1046.82,1070.44 1046.17,1069.46C1045.52,1068.48 1045.18,1067.18 1045.15,1065.59L1045.15,1040.79L1049.15,1039.68ZM1058.25,1046.79L1058.25,1050.24L1040.15,1050.24L1040.15,1046.79L1058.25,1046.79Z" style="fill:rgb(43,43,43);fill-rule:nonzero;"></path>
            </g>
            <g transform="matrix(4.99562,0,0,4.99562,-2171.92,-4202.14)">
                <path d="M1074.65,1072.29C1072.28,1072.29 1070.17,1071.77 1068.32,1070.74C1066.47,1069.7 1065.03,1068.21 1064,1066.26C1062.96,1064.31 1062.45,1061.99 1062.45,1059.29C1062.45,1056.59 1062.96,1054.26 1064,1052.31C1065.03,1050.36 1066.45,1048.87 1068.25,1047.84C1070.05,1046.8 1072.1,1046.29 1074.4,1046.29C1076.73,1046.29 1078.72,1046.79 1080.37,1047.79C1082.02,1048.79 1083.28,1050.14 1084.15,1051.86C1085.02,1053.58 1085.45,1055.5 1085.45,1057.63C1085.45,1058.2 1085.43,1058.72 1085.4,1059.18C1085.37,1059.65 1085.32,1060.07 1085.25,1060.43L1065.05,1060.43L1065.05,1056.88L1083.5,1056.88L1081.45,1057.29C1081.45,1054.88 1080.79,1053.04 1079.47,1051.74C1078.16,1050.43 1076.43,1049.79 1074.3,1049.79C1072.66,1049.79 1071.26,1050.16 1070.07,1050.91C1068.89,1051.66 1067.97,1052.74 1067.32,1054.16C1066.67,1055.58 1066.35,1057.29 1066.35,1059.29C1066.35,1061.25 1066.68,1062.95 1067.35,1064.38C1068.02,1065.82 1068.96,1066.91 1070.17,1067.66C1071.39,1068.41 1072.85,1068.79 1074.55,1068.79C1076.38,1068.79 1077.87,1068.43 1079.02,1067.74C1080.17,1067.04 1081.1,1066.09 1081.8,1064.88L1084.95,1066.74C1084.32,1067.87 1083.51,1068.85 1082.52,1069.68C1081.54,1070.52 1080.39,1071.16 1079.07,1071.61C1077.76,1072.06 1076.28,1072.29 1074.65,1072.29Z" style="fill:rgb(43,43,43);fill-rule:nonzero;"></path>
            </g>
            <g transform="matrix(4.99562,0,0,4.99562,-2171.92,-4202.14)">
                <path d="M1103.4,1046.29C1105.13,1046.29 1106.66,1046.55 1107.97,1047.09C1109.29,1047.62 1110.43,1048.38 1111.4,1049.38C1112.37,1050.38 1113.15,1051.57 1113.75,1052.93L1109.95,1054.74C1109.41,1053.13 1108.61,1051.91 1107.52,1051.06C1106.44,1050.21 1105.03,1049.79 1103.3,1049.79C1101.63,1049.79 1100.2,1050.16 1099,1050.91C1097.8,1051.66 1096.88,1052.74 1096.25,1054.16C1095.62,1055.58 1095.3,1057.29 1095.3,1059.29C1095.3,1061.25 1095.62,1062.95 1096.25,1064.38C1096.88,1065.82 1097.8,1066.91 1099,1067.66C1100.2,1068.41 1101.63,1068.79 1103.3,1068.79C1104.6,1068.79 1105.72,1068.59 1106.67,1068.18C1107.62,1067.79 1108.41,1067.2 1109.02,1066.43C1109.64,1065.67 1110.07,1064.74 1110.3,1063.63L1114,1064.93C1113.43,1066.47 1112.66,1067.79 1111.67,1068.88C1110.69,1069.99 1109.51,1070.83 1108.12,1071.41C1106.74,1071.99 1105.16,1072.29 1103.4,1072.29C1101.07,1072.29 1098.98,1071.77 1097.15,1070.74C1095.32,1069.7 1093.88,1068.21 1092.85,1066.26C1091.82,1064.31 1091.3,1061.99 1091.3,1059.29C1091.3,1056.59 1091.82,1054.26 1092.85,1052.31C1093.88,1050.36 1095.32,1048.87 1097.15,1047.84C1098.98,1046.8 1101.07,1046.29 1103.4,1046.29Z" style="fill:rgb(43,43,43);fill-rule:nonzero;"></path>
            </g>
            <g transform="matrix(4.99562,0,0,4.99562,-2171.92,-4202.14)">
                <path d="M1121.05,1071.79L1121.05,1035.29L1125.05,1035.29L1125.05,1050.54C1125.91,1049.04 1127.07,1047.95 1128.5,1047.29C1129.93,1046.62 1131.5,1046.29 1133.2,1046.29C1135,1046.29 1136.63,1046.63 1138.1,1047.31C1139.57,1047.99 1140.74,1049.04 1141.62,1050.43C1142.51,1051.84 1142.95,1053.62 1142.95,1055.79L1142.95,1071.79L1138.95,1071.79L1138.95,1057.18C1138.95,1054.42 1138.36,1052.49 1137.17,1051.41C1135.99,1050.33 1134.53,1049.79 1132.8,1049.79C1131.6,1049.79 1130.4,1050.07 1129.2,1050.63C1128,1051.2 1127.01,1052.13 1126.22,1053.41C1125.44,1054.69 1125.05,1056.4 1125.05,1058.54L1125.05,1071.79L1121.05,1071.79Z" style="fill:rgb(43,43,43);fill-rule:nonzero;"></path>
            </g>
            <g transform="matrix(4.99562,0,0,4.99562,-2171.92,-4202.14)">
                <path d="M1152,1071.79L1152,1046.79L1155.5,1046.79L1155.85,1052.38L1155.2,1051.84C1155.73,1050.5 1156.45,1049.43 1157.35,1048.61C1158.25,1047.79 1159.29,1047.2 1160.47,1046.84C1161.66,1046.47 1162.88,1046.29 1164.15,1046.29C1165.95,1046.29 1167.58,1046.63 1169.05,1047.31C1170.52,1047.99 1171.69,1049.04 1172.57,1050.43C1173.46,1051.84 1173.9,1053.62 1173.9,1055.79L1173.9,1071.79L1169.9,1071.79L1169.9,1057.18C1169.9,1054.42 1169.31,1052.49 1168.12,1051.41C1166.94,1050.33 1165.48,1049.79 1163.75,1049.79C1162.55,1049.79 1161.35,1050.07 1160.15,1050.63C1158.95,1051.2 1157.96,1052.12 1157.17,1053.38C1156.39,1054.65 1156,1056.35 1156,1058.49L1156,1071.79L1152,1071.79Z" style="fill:rgb(43,43,43);fill-rule:nonzero;"></path>
            </g>
            <g transform="matrix(4.99562,0,0,4.82685,-2169.59,-3969.97)">
                <path d="M1216.75,1035.29L1216.75,1065.43C1216.75,1066.7 1216.98,1067.58 1217.45,1068.06C1217.91,1068.54 1218.66,1068.79 1219.7,1068.79C1220.37,1068.79 1220.91,1068.74 1221.35,1068.63C1221.78,1068.54 1222.37,1068.35 1223.1,1068.09L1222.45,1071.59C1221.91,1071.82 1221.33,1071.99 1220.7,1072.11C1220.07,1072.23 1219.41,1072.29 1218.75,1072.29C1216.71,1072.29 1215.21,1071.74 1214.22,1070.63C1213.24,1069.54 1212.75,1067.85 1212.75,1065.59L1212.75,1035.29L1216.75,1035.29Z" style="fill:rgb(43,43,43);fill-rule:nonzero;"></path>
            </g>
            <g transform="matrix(4.99562,0,0,4.99562,-2171.92,-4202.14)">
                <path d="M1238.6,1046.29C1240.96,1046.29 1243.06,1046.8 1244.87,1047.84C1246.69,1048.87 1248.12,1050.36 1249.15,1052.31C1250.18,1054.26 1250.7,1056.59 1250.7,1059.29C1250.7,1061.99 1250.18,1064.31 1249.15,1066.26C1248.12,1068.21 1246.69,1069.7 1244.87,1070.74C1243.06,1071.77 1240.96,1072.29 1238.6,1072.29C1236.27,1072.29 1234.18,1071.77 1232.35,1070.74C1230.52,1069.7 1229.08,1068.21 1228.05,1066.26C1227.02,1064.31 1226.5,1061.99 1226.5,1059.29C1226.5,1056.59 1227.02,1054.26 1228.05,1052.31C1229.08,1050.36 1230.52,1048.87 1232.35,1047.84C1234.18,1046.8 1236.27,1046.29 1238.6,1046.29ZM1238.6,1049.74C1236.9,1049.74 1235.45,1050.12 1234.25,1050.88C1233.05,1051.65 1232.12,1052.74 1231.47,1054.16C1230.82,1055.58 1230.5,1057.29 1230.5,1059.29C1230.5,1061.25 1230.82,1062.95 1231.47,1064.38C1232.12,1065.82 1233.05,1066.92 1234.25,1067.68C1235.45,1068.45 1236.9,1068.84 1238.6,1068.84C1240.3,1068.84 1241.75,1068.45 1242.95,1067.68C1244.15,1066.92 1245.07,1065.82 1245.72,1064.38C1246.37,1062.95 1246.7,1061.25 1246.7,1059.29C1246.7,1057.29 1246.37,1055.58 1245.72,1054.16C1245.07,1052.74 1244.15,1051.65 1242.95,1050.88C1241.75,1050.12 1240.3,1049.74 1238.6,1049.74Z" style="fill:rgb(43,43,43);fill-rule:nonzero;"></path>
            </g>
            <g transform="matrix(4.99562,0,0,4.99562,-2171.92,-4202.14)">
                <path d="M1279.3,1042.18L1280.2,1045.74L1279.85,1045.74C1278.21,1045.74 1276.96,1046.06 1276.07,1046.71C1275.19,1047.36 1274.75,1048.4 1274.75,1049.84L1272.3,1048.59C1272.3,1047.29 1272.6,1046.15 1273.2,1045.18C1273.8,1044.22 1274.62,1043.48 1275.65,1042.96C1276.68,1042.44 1277.82,1042.18 1279.05,1042.18L1279.3,1042.18ZM1271.7,1068.59C1274.07,1068.59 1275.91,1069.13 1277.25,1070.21C1278.58,1071.29 1279.25,1072.74 1279.25,1074.54C1279.25,1076.17 1278.71,1077.59 1277.62,1078.79C1276.54,1079.99 1275.09,1080.91 1273.27,1081.56C1271.46,1082.21 1269.41,1082.54 1267.15,1082.54C1263.21,1082.54 1260.27,1081.87 1258.32,1080.54C1256.37,1079.2 1255.4,1077.6 1255.4,1075.74C1255.4,1074.4 1255.84,1073.21 1256.72,1072.16C1257.61,1071.11 1259.1,1070.52 1261.2,1070.38L1260.85,1071.13C1259.71,1070.84 1258.76,1070.33 1257.97,1069.61C1257.19,1068.89 1256.8,1067.85 1256.8,1066.49C1256.8,1065.12 1257.31,1063.94 1258.32,1062.96C1259.34,1061.98 1260.85,1061.37 1262.85,1061.13L1265.5,1062.49L1265,1062.49C1263.37,1062.65 1262.21,1063.06 1261.52,1063.71C1260.84,1064.36 1260.5,1065.07 1260.5,1065.84C1260.5,1066.77 1260.84,1067.46 1261.52,1067.91C1262.21,1068.36 1263.16,1068.59 1264.4,1068.59L1271.7,1068.59ZM1267.1,1079.18C1269.03,1079.18 1270.62,1078.99 1271.87,1078.59C1273.12,1078.18 1274.05,1077.67 1274.65,1077.04C1275.25,1076.4 1275.55,1075.72 1275.55,1074.99C1275.55,1074.09 1275.19,1073.37 1274.47,1072.84C1273.76,1072.3 1272.46,1072.04 1270.6,1072.04L1262.9,1072.04C1261.83,1072.04 1260.93,1072.31 1260.2,1072.86C1259.46,1073.41 1259.1,1074.17 1259.1,1075.13C1259.1,1076.37 1259.81,1077.35 1261.22,1078.09C1262.64,1078.82 1264.6,1079.18 1267.1,1079.18ZM1266.75,1046.29C1268.75,1046.29 1270.52,1046.64 1272.07,1047.36C1273.62,1048.08 1274.83,1049.07 1275.7,1050.34C1276.57,1051.6 1277,1053.07 1277,1054.74C1277,1056.37 1276.57,1057.83 1275.7,1059.11C1274.83,1060.39 1273.62,1061.39 1272.07,1062.11C1270.52,1062.83 1268.75,1063.18 1266.75,1063.18C1263.45,1063.18 1260.91,1062.39 1259.15,1060.81C1257.38,1059.23 1256.5,1057.2 1256.5,1054.74C1256.5,1053.07 1256.94,1051.6 1257.82,1050.34C1258.71,1049.07 1259.91,1048.08 1261.45,1047.36C1262.98,1046.64 1264.75,1046.29 1266.75,1046.29ZM1266.75,1049.54C1265.02,1049.54 1263.57,1050.01 1262.4,1050.96C1261.23,1051.91 1260.65,1053.17 1260.65,1054.74C1260.65,1056.27 1261.23,1057.52 1262.4,1058.49C1263.57,1059.45 1265.02,1059.93 1266.75,1059.93C1268.48,1059.93 1269.93,1059.45 1271.1,1058.49C1272.27,1057.52 1272.85,1056.27 1272.85,1054.74C1272.85,1053.17 1272.27,1051.91 1271.1,1050.96C1269.93,1050.01 1268.48,1049.54 1266.75,1049.54Z" style="fill:rgb(43,43,43);fill-rule:nonzero;"></path>
            </g>
            <g transform="matrix(4.99562,0,0,4.99562,-2171.92,-4202.14)">
                <path d="M1305.4,1046.79L1293.65,1075.99C1293.02,1077.62 1292.32,1078.91 1291.57,1079.86C1290.82,1080.81 1289.99,1081.49 1289.07,1081.91C1288.16,1082.33 1287.1,1082.54 1285.9,1082.54C1284.77,1082.54 1283.72,1082.38 1282.77,1082.06C1281.82,1081.74 1280.98,1081.32 1280.25,1080.79L1281.35,1077.29C1282.02,1077.88 1282.72,1078.33 1283.47,1078.61C1284.22,1078.89 1284.96,1079.04 1285.7,1079.04C1286.57,1079.04 1287.38,1078.77 1288.15,1078.24C1288.91,1077.7 1289.62,1076.62 1290.25,1074.99L1291.55,1071.74L1289.05,1065.79L1281.1,1046.79L1285.65,1046.79L1291.9,1063.09L1293.45,1067.54L1295.25,1062.59L1301.1,1046.79L1305.4,1046.79Z" style="fill:rgb(43,43,43);fill-rule:nonzero;"></path>
            </g>
            <g transform="matrix(3.13301,0,0,3.13301,-4299.67,-5129.85)">
                <path d="M2661.06,1983.6C2662.03,1983.6 2662.81,1983.9 2663.41,1984.5C2664.01,1985.1 2664.31,1985.89 2664.31,1986.85C2664.31,1987.82 2664.01,1988.6 2663.41,1989.2C2662.81,1989.8 2662.03,1990.1 2661.06,1990.1C2660.1,1990.1 2659.31,1989.8 2658.71,1989.2C2658.11,1988.6 2657.81,1987.82 2657.81,1986.85C2657.81,1985.89 2658.11,1985.1 2658.71,1984.5C2659.31,1983.9 2660.1,1983.6 2661.06,1983.6Z" style="fill:rgb(43,43,43);fill-rule:nonzero;"></path>
            </g>
            <g transform="matrix(4.99562,0,0,4.99562,-2171.92,-4202.14)">
                <path d="M1193.3,1046.29C1195.66,1046.29 1197.76,1046.8 1199.57,1047.84C1201.39,1048.87 1202.82,1050.36 1203.85,1052.31C1204.88,1054.26 1205.4,1056.59 1205.4,1059.29C1205.4,1061.99 1204.88,1064.31 1203.85,1066.26C1202.82,1068.21 1201.39,1069.7 1199.57,1070.74C1197.76,1071.77 1195.66,1072.29 1193.3,1072.29C1190.96,1072.29 1188.88,1071.77 1187.05,1070.74C1185.21,1069.7 1183.78,1068.21 1182.75,1066.26C1181.71,1064.31 1181.2,1061.99 1181.2,1059.29C1181.2,1056.59 1181.71,1054.26 1182.75,1052.31C1183.78,1050.36 1185.21,1048.87 1187.05,1047.84C1188.88,1046.8 1190.96,1046.29 1193.3,1046.29ZM1193.3,1049.74C1191.6,1049.74 1190.15,1050.12 1188.95,1050.88C1187.75,1051.65 1186.82,1052.74 1186.17,1054.16C1185.52,1055.58 1185.2,1057.29 1185.2,1059.29C1185.2,1061.25 1185.52,1062.95 1186.17,1064.38C1186.82,1065.82 1187.75,1066.92 1188.95,1067.68C1190.15,1068.45 1191.6,1068.84 1193.3,1068.84C1195,1068.84 1196.45,1068.45 1197.65,1067.68C1198.85,1066.92 1199.77,1065.82 1200.42,1064.38C1201.07,1062.95 1201.4,1061.25 1201.4,1059.29C1201.4,1057.29 1201.07,1055.58 1200.42,1054.16C1199.77,1052.74 1198.85,1051.65 1197.65,1050.88C1196.45,1050.12 1195,1049.74 1193.3,1049.74Z" style="fill:rgb(43,43,43);fill-rule:nonzero;"></path>
            </g>
            <g transform="matrix(3.13301,0,0,3.13301,-4525.97,-5129.85)">
                <path d="M2661.06,1983.6C2662.03,1983.6 2662.81,1983.9 2663.41,1984.5C2664.01,1985.1 2664.31,1985.89 2664.31,1986.85C2664.31,1987.82 2664.01,1988.6 2663.41,1989.2C2662.81,1989.8 2662.03,1990.1 2661.06,1990.1C2660.1,1990.1 2659.31,1989.8 2658.71,1989.2C2658.11,1988.6 2657.81,1987.82 2657.81,1986.85C2657.81,1985.89 2658.11,1985.1 2658.71,1984.5C2659.31,1983.9 2660.1,1983.6 2661.06,1983.6Z" style="fill:rgb(43,43,43);fill-rule:nonzero;"></path>
            </g>
            <g transform="matrix(0.100395,0.374679,-0.374679,0.100395,4647.96,-194.024)">
                <path d="M3106.24,2881.68L3083.63,2859.45C3097.07,2847.21 3107.88,2834.41 3116.06,2821.06C3124.24,2807.71 3130.18,2793.19 3133.88,2777.5C3137.59,2761.82 3139.44,2744.64 3139.44,2725.98C3139.44,2707.1 3137.59,2689.84 3133.88,2674.23C3130.18,2658.61 3124.24,2644.07 3116.06,2630.61C3107.88,2617.14 3097.07,2604.4 3083.63,2592.39L3106.24,2570.16C3131.05,2588.4 3149.87,2610.57 3162.71,2636.66C3175.55,2662.76 3181.97,2692.53 3181.97,2725.98C3181.97,2759.35 3175.55,2789.04 3162.71,2815.07C3149.87,2841.09 3131.05,2863.3 3106.24,2881.68Z" style="fill:rgb(43,43,43);fill-rule:nonzero;"></path>
            </g>
        </g>
        <g transform="matrix(-0.0701333,-0.261741,0.261741,-0.0701333,3274.65,1998.4)">
            <path d="M3103.07,2881.17L3087.69,2865.8C3102.4,2852.2 3114.1,2838.05 3122.79,2823.35C3131.48,2808.64 3137.72,2793.04 3141.51,2776.55C3145.3,2760.06 3147.19,2742.57 3147.19,2724.08C3147.19,2705.36 3145.3,2687.81 3141.51,2671.43C3137.72,2655.05 3131.48,2639.46 3122.79,2624.64C3114.1,2609.82 3102.4,2595.73 3087.69,2582.36L3103.07,2566.98C3126.69,2587.26 3144.51,2610.66 3156.55,2637.17C3168.58,2663.69 3174.6,2692.66 3174.6,2724.08C3174.6,2755.5 3168.58,2784.41 3156.55,2810.81C3144.51,2837.22 3126.69,2860.67 3103.07,2881.17Z" style="fill:rgb(245,184,42);fill-rule:nonzero;"></path>
        </g>
        <g transform="matrix(-0.0701333,-0.261741,0.261741,-0.0701333,3500.95,1998.4)">
            <path d="M3103.07,2881.17L3087.69,2865.8C3102.4,2852.2 3114.1,2838.05 3122.79,2823.35C3131.48,2808.64 3137.72,2793.04 3141.51,2776.55C3145.3,2760.06 3147.19,2742.57 3147.19,2724.08C3147.19,2705.36 3145.3,2687.81 3141.51,2671.43C3137.72,2655.05 3131.48,2639.46 3122.79,2624.64C3114.1,2609.82 3102.4,2595.73 3087.69,2582.36L3103.07,2566.98C3126.69,2587.26 3144.51,2610.66 3156.55,2637.17C3168.58,2663.69 3174.6,2692.66 3174.6,2724.08C3174.6,2755.5 3168.58,2784.41 3156.55,2810.81C3144.51,2837.22 3126.69,2860.67 3103.07,2881.17Z" style="fill:rgb(245,184,42);fill-rule:nonzero;"></path>
        </g>
    </g>
</svg>